<svg xmlns="http://www.w3.org/2000/svg" viewBox="0 0 32 32"><rect width="32" height="32" rx="4"/><path fill="#fff" d="M24.07 8.93C25.88 10.74 27 13.24 27 16c0 2.76-1.12 5.26-2.93 7.07l-1.41-1.41C24.11 20.22 25 18.22 25 16c0-2.21-.89-4.22-2.34-5.66l1.41-1.41m-2.83 2.83C22.33 12.85 23 14.35 23 16c0 1.65-.67 3.15-1.76 4.24l-1.41-1.41C20.55 18.11 21 17.11 21 16s-.45-2.11-1.17-2.83l1.41-1.41M17 14a2 2 0 0 1 2 2 2 2 0 0 1-2 2 2 2 0 0 1-2-2 2 2 0 0 1 2-2m-1.5-9A2.5 2.5 0 0 1 18 7.5V12h-2V8H7v15h9v-3h2v4.5a2.5 2.5 0 0 1-2.5 2.5h-8A2.5 2.5 0 0 1 5 24.5v-17A2.5 2.5 0 0 1 7.5 5h8Z"/></svg>